<svg width="25" height="25" viewBox="0 0 25 25" fill="none" xmlns="http://www.w3.org/2000/svg">
<path d="M1.5625 21.875C1.5625 22.7393 2.26074 23.4375 3.125 23.4375H21.875C22.7393 23.4375 23.4375 22.7393 23.4375 21.875V7.8125H1.5625V21.875ZM9.375 11.5234C9.375 11.2012 9.63867 10.9375 9.96094 10.9375H15.0391C15.3613 10.9375 15.625 11.2012 15.625 11.5234V11.9141C15.625 12.2363 15.3613 12.5 15.0391 12.5H9.96094C9.63867 12.5 9.375 12.2363 9.375 11.9141V11.5234ZM23.4375 1.5625H1.5625C0.698242 1.5625 0 2.26074 0 3.125V5.46875C0 5.89844 0.351562 6.25 0.78125 6.25H24.2188C24.6484 6.25 25 5.89844 25 5.46875V3.125C25 2.26074 24.3018 1.5625 23.4375 1.5625Z" fill="#9C3030"/>
</svg>
