<svg width="25" height="29" viewBox="0 0 25 29" fill="none" xmlns="http://www.w3.org/2000/svg">
<g clip-path="url(#clip0_2_42)">
<path d="M24.3304 26.7857H23.2143V1.33929C23.2143 0.599609 22.6147 0 21.875 0H3.125C2.38532 0 1.78571 0.599609 1.78571 1.33929V26.7857H0.669643C0.299833 26.7857 0 27.0855 0 27.4554V28.5714H25V27.4554C25 27.0855 24.7002 26.7857 24.3304 26.7857ZM7.14286 4.24107C7.14286 3.87126 7.44269 3.57143 7.8125 3.57143H10.0446C10.4145 3.57143 10.7143 3.87126 10.7143 4.24107V6.47321C10.7143 6.84302 10.4145 7.14286 10.0446 7.14286H7.8125C7.44269 7.14286 7.14286 6.84302 7.14286 6.47321V4.24107ZM7.14286 9.59821C7.14286 9.2284 7.44269 8.92857 7.8125 8.92857H10.0446C10.4145 8.92857 10.7143 9.2284 10.7143 9.59821V11.8304C10.7143 12.2002 10.4145 12.5 10.0446 12.5H7.8125C7.44269 12.5 7.14286 12.2002 7.14286 11.8304V9.59821ZM10.0446 17.8571H7.8125C7.44269 17.8571 7.14286 17.5573 7.14286 17.1875V14.9554C7.14286 14.5855 7.44269 14.2857 7.8125 14.2857H10.0446C10.4145 14.2857 10.7143 14.5855 10.7143 14.9554V17.1875C10.7143 17.5573 10.4145 17.8571 10.0446 17.8571ZM14.2857 26.7857H10.7143V22.0982C10.7143 21.7284 11.0141 21.4286 11.3839 21.4286H13.6161C13.9859 21.4286 14.2857 21.7284 14.2857 22.0982V26.7857ZM17.8571 17.1875C17.8571 17.5573 17.5573 17.8571 17.1875 17.8571H14.9554C14.5855 17.8571 14.2857 17.5573 14.2857 17.1875V14.9554C14.2857 14.5855 14.5855 14.2857 14.9554 14.2857H17.1875C17.5573 14.2857 17.8571 14.5855 17.8571 14.9554V17.1875ZM17.8571 11.8304C17.8571 12.2002 17.5573 12.5 17.1875 12.5H14.9554C14.5855 12.5 14.2857 12.2002 14.2857 11.8304V9.59821C14.2857 9.2284 14.5855 8.92857 14.9554 8.92857H17.1875C17.5573 8.92857 17.8571 9.2284 17.8571 9.59821V11.8304ZM17.8571 6.47321C17.8571 6.84302 17.5573 7.14286 17.1875 7.14286H14.9554C14.5855 7.14286 14.2857 6.84302 14.2857 6.47321V4.24107C14.2857 3.87126 14.5855 3.57143 14.9554 3.57143H17.1875C17.5573 3.57143 17.8571 3.87126 17.8571 4.24107V6.47321Z" fill="#5B5B5B"/>
</g>
<defs>
<clipPath id="clip0_2_42">
<rect width="25" height="28.5714" fill="white"/>
</clipPath>
</defs>
</svg>
