<svg width="25" height="25" viewBox="0 0 25 25" fill="none" xmlns="http://www.w3.org/2000/svg">
<g clip-path="url(#clip0_2_52)">
<path d="M24.6582 8.53516L22.7246 6.60157C22.2656 6.14258 21.5234 6.14258 21.0693 6.60157L9.375 18.2959L3.93555 12.8516C3.47656 12.3926 2.73437 12.3926 2.28027 12.8516L0.341797 14.7901C-0.117187 15.249 -0.117187 15.9912 0.341797 16.4502L8.54492 24.6582C9.0039 25.1172 9.74609 25.1172 10.2002 24.6582L24.6533 10.1953C25.1123 9.73145 25.1123 8.98927 24.6582 8.53516ZM8.82324 13.711C9.12597 14.0186 9.62402 14.0186 9.92675 13.711L20.083 3.54493C20.3857 3.23731 20.3857 2.74414 20.083 2.44141L17.876 0.229492C17.5732 -0.0781251 17.0752 -0.0781251 16.7725 0.229492L9.375 7.62696L6.66992 4.917C6.36719 4.60938 5.86914 4.60938 5.5664 4.917L3.35449 7.12891C3.05176 7.43653 3.05176 7.9297 3.35449 8.23243L8.82324 13.711Z" fill="#5B5B5B"/>
</g>
<defs>
<clipPath id="clip0_2_52">
<rect width="25" height="25" fill="white"/>
</clipPath>
</defs>
</svg>
