<svg width="25" height="16" viewBox="0 0 25 16" fill="none" xmlns="http://www.w3.org/2000/svg">
<path d="M20.0351 5.5C19.4531 5.49609 18.8984 5.58984 18.3789 5.76953L17.0937 3.625H20.3125C20.832 3.625 21.25 3.20703 21.25 2.6875V1.4375C21.25 0.917969 20.832 0.5 20.3125 0.5H18.5429C18.2773 0.5 18.0234 0.613281 17.8476 0.808594L16.3828 2.4375L15.4922 0.953125C15.3203 0.671875 15.0156 0.5 14.6875 0.5H11.5625C11.2187 0.5 10.9375 0.78125 10.9375 1.125V1.75C10.9375 2.09375 11.2187 2.375 11.5625 2.375H14.1562L14.9062 3.625H8.90231C8.21091 2.72266 7.14841 2.0625 4.99998 2.0625H2.83201C2.30467 2.0625 1.86326 2.49219 1.87498 3.01953C1.88279 3.52734 2.30076 3.9375 2.81248 3.9375H4.99998C5.95701 3.9375 6.51169 4.36328 6.86716 4.90625L6.42576 5.70703C5.91794 5.55469 5.37498 5.48438 4.81248 5.50391C2.18357 5.59766 0.0624831 7.75 -1.68628e-05 10.3828C-0.0625168 13.1992 2.1992 15.5 4.99998 15.5C7.3281 15.5 9.28513 13.9063 9.84372 11.75H13.1328C13.6679 11.75 14.0937 11.3047 14.0703 10.7695C13.9882 8.92969 14.7539 7.10937 16.2656 5.88672L16.7539 6.69922C15.6757 7.625 14.9922 9 15.0039 10.5352C15.0234 13.2539 17.2382 15.4766 19.957 15.5C22.7539 15.5273 25.0273 13.2539 25.0039 10.457C24.9765 7.73828 22.7539 5.51953 20.0351 5.5V5.5ZM4.99998 13.625C3.27732 13.625 1.87498 12.2227 1.87498 10.5C1.87498 8.77734 3.27732 7.375 4.99998 7.375C5.16404 7.375 5.3281 7.38672 5.48826 7.41406L3.86717 10.3594C3.52342 10.9844 3.97654 11.75 4.68748 11.75H7.86325C7.37888 12.8516 6.27732 13.625 4.99998 13.625ZM23.121 10.6719C23.0351 12.2578 21.7539 13.5391 20.1718 13.6211C18.3711 13.7187 16.875 12.2812 16.875 10.5C16.875 9.66406 17.2031 8.90625 17.7382 8.34766L19.6679 11.5664C19.8437 11.8633 20.2304 11.957 20.5273 11.7812L21.0625 11.4609C21.3593 11.2852 21.4531 10.8984 21.2773 10.6016L19.3789 7.44141C19.582 7.39844 19.789 7.37891 20 7.37891C21.7812 7.375 23.2148 8.87109 23.121 10.6719Z" fill="#5B5B5B"/>
</svg>
