<svg width="25" height="29" viewBox="0 0 25 29" fill="none" xmlns="http://www.w3.org/2000/svg">
<path d="M24.3974 22.5167L17.8572 11.9978V3.57143H18.3036C19.0458 3.57143 19.6429 2.97433 19.6429 2.23214V1.33929C19.6429 0.597098 19.0458 0 18.3036 0H6.69646C5.95427 0 5.35717 0.597098 5.35717 1.33929V2.23214C5.35717 2.97433 5.95427 3.57143 6.69646 3.57143H7.14289V11.9978L0.602705 22.5167C-1.03234 25.1451 0.853821 28.5714 3.9565 28.5714H21.0436C24.1518 28.5714 26.0324 25.1395 24.3974 22.5167V22.5167ZM7.69534 17.8571L10.3851 13.5268C10.5915 13.2366 10.7087 12.8795 10.7087 12.5V3.57143H14.2802V12.5C14.2802 12.885 14.4029 13.2366 14.6038 13.5268L17.2936 17.8571H7.69534V17.8571Z" fill="#5B5B5B"/>
</svg>
