<svg width="25" height="25" viewBox="0 0 25 25" fill="none" xmlns="http://www.w3.org/2000/svg">
<path d="M9.8401 8.53637L12.5598 11.261C12.7112 11.4124 12.7112 11.6614 12.5598 11.8127L12.0081 12.3645C11.8567 12.5159 11.6077 12.5159 11.4563 12.3645L8.73658 9.63989L6.52466 11.8518L9.24928 14.5764C9.40064 14.7278 9.40064 14.9768 9.24928 15.1282L8.69752 15.6799C8.54615 15.8313 8.29713 15.8313 8.14576 15.6799L5.42115 12.9504L4.13208 14.2395C3.28736 15.0842 2.88208 16.2463 3.00904 17.4329L3.35572 20.5383L0.113525 23.7805C-0.0378418 23.9319 -0.0378418 24.1809 0.113525 24.3323L0.665284 24.884C0.816651 25.0354 1.06567 25.0354 1.21704 24.884L4.45435 21.6467L7.55982 21.9934C8.72681 22.1204 9.89869 21.7297 10.7532 20.8704L19.635 11.9885L13.009 5.36255L9.8401 8.53637V8.53637ZM24.8889 3.98071L21.0217 0.113525C20.8704 -0.0378418 20.6214 -0.0378418 20.47 0.113525L19.9182 0.665283C19.7669 0.81665 19.7669 1.06567 19.9182 1.21704L21.3001 2.59888L19.0882 4.81079L16.3245 2.04712L15.4944 1.21704C15.343 1.06567 15.094 1.06567 14.9426 1.21704L13.2874 2.87231C13.136 3.02368 13.136 3.2727 13.2874 3.42407L14.1174 4.25415L20.7434 10.8899L21.5735 11.72C21.7249 11.8713 21.9739 11.8713 22.1253 11.72L23.7805 10.0598C23.9319 9.90844 23.9319 9.65942 23.7805 9.50805L20.1917 5.91919L22.4036 3.70727L23.7854 5.08911C23.9368 5.24048 24.1858 5.24048 24.3372 5.08911L24.8889 4.53735C25.0403 4.3811 25.0403 4.13696 24.8889 3.98071V3.98071Z" fill="#5B5B5B"/>
</svg>
