<svg width="25" height="20" viewBox="0 0 25 20" fill="none" xmlns="http://www.w3.org/2000/svg">
<path d="M12.5 5.625C10.4289 5.625 8.75 7.58359 8.75 10C8.75 12.416 10.4289 14.375 12.5 14.375C14.5703 14.375 16.25 12.4168 16.25 10C16.25 7.58359 14.5711 5.625 12.5 5.625ZM14.0625 12.1875C14.0625 12.3602 13.9227 12.5 13.75 12.5H11.25C11.0773 12.5 10.9375 12.3602 10.9375 12.1875V11.5625C10.9375 11.3898 11.0773 11.25 11.25 11.25H11.875V9.08437L11.8566 9.09648C11.8225 9.11926 11.7842 9.13509 11.744 9.14306C11.7037 9.15103 11.6623 9.15098 11.6221 9.14293C11.5818 9.13488 11.5436 9.11897 11.5095 9.09612C11.4754 9.07327 11.4462 9.04393 11.4234 9.00977L11.0766 8.48984C11.0538 8.45571 11.038 8.41743 11.03 8.37718C11.022 8.33693 11.0221 8.2955 11.0301 8.25526C11.0382 8.21503 11.0541 8.17678 11.0769 8.1427C11.0998 8.10862 11.1291 8.07937 11.1633 8.05664L11.7621 7.65742C11.9161 7.55476 12.097 7.49999 12.282 7.5H12.8125C12.9852 7.5 13.125 7.63984 13.125 7.8125V11.25H13.75C13.9227 11.25 14.0625 11.3898 14.0625 11.5625V12.1875ZM23.75 2.5H1.25C0.559766 2.5 0 3.05977 0 3.75V16.25C0 16.9402 0.559766 17.5 1.25 17.5H23.75C24.4402 17.5 25 16.9402 25 16.25V3.75C25 3.05977 24.4402 2.5 23.75 2.5ZM23.125 13.125C21.7441 13.125 20.625 14.2441 20.625 15.625H4.375C4.375 14.2441 3.25586 13.125 1.875 13.125V6.875C3.25586 6.875 4.375 5.75586 4.375 4.375H20.625C20.625 5.75586 21.7441 6.875 23.125 6.875V13.125Z" fill="#5B5B5B"/>
</svg>
