<svg width="15" height="15" viewBox="0 0 15 15" fill="none" xmlns="http://www.w3.org/2000/svg">
<path d="M6.37835 1.23996L7.12165 0.496654C7.43638 0.181922 7.94531 0.181922 8.2567 0.496654L14.7656 7.00224C15.0804 7.31697 15.0804 7.8259 14.7656 8.13728L8.2567 14.6462C7.94196 14.9609 7.43304 14.9609 7.12165 14.6462L6.37835 13.9029C6.06027 13.5848 6.06696 13.0659 6.39174 12.7545L10.4263 8.91072H0.803571C0.358259 8.91072 0 8.55246 0 8.10715V7.03572C0 6.59041 0.358259 6.23215 0.803571 6.23215H10.4263L6.39174 2.3884C6.06362 2.07701 6.05692 1.55804 6.37835 1.23996Z" fill="#E5E5E5"/>
</svg>
