<svg width="15" height="16" viewBox="0 0 15 16" fill="none" xmlns="http://www.w3.org/2000/svg">
<path d="M1.00469 8.84644L0.242156 8.0839C-0.0807197 7.76103 -0.0807197 7.23893 0.242156 6.91949L6.91607 0.242135C7.23895 -0.0807408 7.76105 -0.0807408 8.08049 0.242135L14.7578 6.91949C15.0807 7.24236 15.0807 7.76446 14.7578 8.0839L13.9953 8.84644C13.669 9.17275 13.1366 9.16588 12.8172 8.8327L8.87394 4.6937V14.5655C8.87394 15.0223 8.50641 15.3898 8.04958 15.3898H6.95042C6.49359 15.3898 6.12606 15.0223 6.12606 14.5655V4.6937L2.18285 8.8327C1.86341 9.16932 1.331 9.17618 1.00469 8.84644V8.84644Z" fill="#5B5B5B"/>
</svg>
