<svg width="15" height="16" viewBox="0 0 15 16" fill="none" xmlns="http://www.w3.org/2000/svg">
<path d="M13.9953 6.54339L14.7578 7.30593C15.0807 7.62881 15.0807 8.1509 14.7578 8.47034L8.08393 15.1477C7.76105 15.4706 7.23895 15.4706 6.91951 15.1477L0.242157 8.47034C-0.080719 8.14747 -0.080719 7.62537 0.242157 7.30593L1.00469 6.54339C1.33101 6.21708 1.86341 6.22395 2.18285 6.55713L6.12606 10.6961V0.824364C6.12606 0.367529 6.49359 0 6.95042 0H8.04958C8.50641 0 8.87394 0.367529 8.87394 0.824364V10.6961L12.8172 6.55713C13.1366 6.22052 13.669 6.21365 13.9953 6.54339V6.54339Z" fill="#5B5B5B"/>
</svg>
